/* XPM */
static char * C:\Users\OTR_dev\Desktop\coin\no exif\16_xpm[] = {
"16 16 100 2",
"  	c None",
". 	c #FFFFFF",
"+ 	c #D2DAE0",
"@ 	c #C3CED6",
"# 	c #879DAC",
"$ 	c #4A6C83",
"% 	c #688597",
"& 	c #0E3B59",
"* 	c #1D4763",
"= 	c #ECF0F2",
"- 	c #EFF2F4",
"; 	c #3B6078",
"> 	c #A5B6C1",
", 	c #2C546E",
"' 	c #59768B",
") 	c #869CAB",
"! 	c #0E3A58",
"~ 	c #D1D8DD",
"{ 	c #95A5B1",
"] 	c #587386",
"^ 	c #E1E6E9",
"/ 	c #C2CCD3",
"( 	c #F0F2F4",
"_ 	c #E1E6EA",
": 	c #F0F3F5",
"< 	c #96A9B6",
"[ 	c #C2CAD0",
"} 	c #8596A2",
"| 	c #576F81",
"1 	c #0B2F49",
"2 	c #94A4B0",
"3 	c #C2CCD2",
"4 	c #8699A7",
"5 	c #59788D",
"6 	c #C1C8CE",
"7 	c #758592",
"8 	c #758694",
"9 	c #0A2941",
"0 	c #B3BDC4",
"a 	c #8596A3",
"b 	c #F0F2F3",
"c 	c #D1D5D9",
"d 	c #939CA5",
"e 	c #556574",
"f 	c #B2B9BF",
"g 	c #C1C7CC",
"h 	c #939EA8",
"i 	c #657684",
"j 	c #657786",
"k 	c #94A0AB",
"l 	c #385164",
"m 	c #C2CDD4",
"n 	c #737D87",
"o 	c #929BA3",
"p 	c #061A2E",
"q 	c #071C2F",
"r 	c #071D31",
"s 	c #071E33",
"t 	c #082035",
"u 	c #082136",
"v 	c #082238",
"w 	c #374C5E",
"x 	c #828991",
"y 	c #C0C4C8",
"z 	c #434F5C",
"A 	c #051527",
"B 	c #051628",
"C 	c #06182A",
"D 	c #06192C",
"E 	c #64727F",
"F 	c #616770",
"G 	c #E0E1E3",
"H 	c #434B57",
"I 	c #041020",
"J 	c #041121",
"K 	c #051323",
"L 	c #051425",
"M 	c #051728",
"N 	c #445260",
"O 	c #E0E2E5",
"P 	c #EEEFEF",
"Q 	c #41454F",
"R 	c #CFD0D3",
"S 	c #A0A4A9",
"T 	c #525862",
"U 	c #131B29",
"V 	c #232C39",
"W 	c #A1A6AC",
"X 	c #626B76",
"Y 	c #EEEFF1",
"Z 	c #808187",
"` 	c #707177",
" .	c #A0A0A4",
"..	c #C0C0C3",
"+.	c #B0B1B5",
"@.	c #71747C",
"#.	c #81868D",
"$.	c #CFCFD1",
"%.	c #BFC0C2",
"&.	c #CFD0D2",
"          . + @ @ + .           ",
"      . # $ % $ & & * # =       ",
"    - $ # % * & & & & & ; -     ",
"  . $ > * & & & & & & & & ; =   ",
"  # > , & & & & & & & & & & #   ",
". ' ) ! & & & & & & & & & & * . ",
"~ { ] ^ / . ( _ : + < & , . * @ ",
"[ [ } | 1 2 3 4 + 5 @ , > ; & @ ",
"6 6 7 8 9 0 [ a ~ b % < , & & @ ",
"c d e f g h i j k l m , & & & @ ",
". n o p q r s t u v w @ & & * . ",
"  x y z A B C D p q r E < & #   ",
"  . F G H I J K L A M N O # =   ",
"    P Q R S T U V H W G X Y     ",
"      . Z `  .....+.@.#..       ",
"          . $.%...&..           "};
