/* XPM */
static char * C:\Users\OTR_dev\Desktop\coin\no exif\64_xpm[] = {
"64 64 475 2",
"  	c None",
". 	c #FFFFFF",
"+ 	c #D2DAE0",
"@ 	c #A5B6C1",
"# 	c #879DAC",
"$ 	c #4A6C83",
"% 	c #3B6078",
"& 	c #0E3B59",
"* 	c #2C546E",
"= 	c #7791A2",
"- 	c #96A9B6",
"; 	c #C3CED6",
"> 	c #B4C2CB",
", 	c #688597",
"' 	c #1D4763",
") 	c #59788D",
"! 	c #F0F3F5",
"~ 	c #E1E7EA",
"{ 	c #2C516B",
"] 	c #0E3956",
"^ 	c #2C526C",
"/ 	c #4A6B81",
"( 	c #7790A1",
"_ 	c #0E3A58",
": 	c #D2D9DF",
"< 	c #0D3754",
"[ 	c #3A5D74",
"} 	c #B3C1CA",
"| 	c #59778B",
"1 	c #0D3956",
"2 	c #0E3957",
"3 	c #0E3A57",
"4 	c #778D9D",
"5 	c #0D3552",
"6 	c #0D3652",
"7 	c #C3CDD4",
"8 	c #95A7B4",
"9 	c #0D3753",
"0 	c #0D3854",
"a 	c #0D3855",
"b 	c #2B4D66",
"c 	c #0C344F",
"d 	c #49677C",
"e 	c #587487",
"f 	c #3A5B71",
"g 	c #0D3551",
"h 	c #1C435E",
"i 	c #869BA9",
"j 	c #D2DADF",
"k 	c #F0F2F4",
"l 	c #0C324D",
"m 	c #2A4C64",
"n 	c #768C9B",
"o 	c #677F91",
"p 	c #0C334F",
"q 	c #0C3450",
"r 	c #C2CBD2",
"s 	c #0B304A",
"t 	c #0C304B",
"u 	c #94A5B0",
"v 	c #C2CCD2",
"w 	c #3A586E",
"x 	c #3A596F",
"y 	c #C2CCD3",
"z 	c #768D9C",
"A 	c #4A697E",
"B 	c #778F9F",
"C 	c #778FA0",
"D 	c #4A6A80",
"E 	c #4A6A81",
"F 	c #A5B5C0",
"G 	c #8597A4",
"H 	c #0B2F48",
"I 	c #1A3C54",
"J 	c #486477",
"K 	c #0B304B",
"L 	c #0C314B",
"M 	c #E1E5E9",
"N 	c #677F8F",
"O 	c #0C324E",
"P 	c #0C334E",
"Q 	c #587386",
"R 	c #1C425C",
"S 	c #4A687D",
"T 	c #869BAA",
"U 	c #768997",
"V 	c #0B2D46",
"W 	c #1A3A52",
"X 	c #486275",
"Y 	c #768998",
"Z 	c #0B2E48",
"` 	c #677D8D",
" .	c #768A99",
"..	c #0C314C",
"+.	c #0C324C",
"@.	c #587285",
"#.	c #49687D",
"$.	c #476072",
"%.	c #0A2B44",
"&.	c #385367",
"*.	c #C2CAD0",
"=.	c #768897",
"-.	c #C2CBD1",
";.	c #D1D8DD",
">.	c #0B2F49",
",.	c #D1D9DE",
"'.	c #49667A",
").	c #49667B",
"!.	c #869AA8",
"~.	c #475F71",
"{.	c #0A2A42",
"].	c #475F72",
"^.	c #8595A1",
"/.	c #667A8A",
"(.	c #8596A2",
"_.	c #0B2D47",
":.	c #0B2E47",
"<.	c #496478",
"[.	c #496579",
"}.	c #8699A7",
"|.	c #475D6F",
"1.	c #092840",
"2.	c #284358",
"3.	c #475E70",
"4.	c #385164",
"5.	c #0A2941",
"6.	c #0A2C45",
"7.	c #0B2C45",
"8.	c #486377",
"9.	c #486478",
"0.	c #8698A5",
"a.	c #95A9B6",
"b.	c #475C6E",
"c.	c #09263D",
"d.	c #657886",
"e.	c #C2C9CF",
"f.	c #93A1AB",
"g.	c #09283F",
"h.	c #8594A0",
"i.	c #0A2A43",
"j.	c #0A2B43",
"k.	c #768896",
"l.	c #486376",
"m.	c #475B6C",
"n.	c #09253B",
"o.	c #475B6D",
"p.	c #84929E",
"q.	c #657786",
"r.	c #D1D7DB",
"s.	c #0A2840",
"t.	c #D1D7DC",
"u.	c #0A2C44",
"v.	c #476173",
"w.	c #486174",
"x.	c #8597A3",
"y.	c #465A6A",
"z.	c #082339",
"A.	c #273F52",
"B.	c #465A6B",
"C.	c #374D5F",
"D.	c #09243B",
"E.	c #657785",
"F.	c #758592",
"G.	c #09273E",
"H.	c #09273F",
"I.	c #566C7C",
"J.	c #758795",
"K.	c #476073",
"L.	c #1A3B53",
"M.	c #74828E",
"N.	c #082137",
"O.	c #364B5D",
"P.	c #C1C8CD",
"Q.	c #A2ACB4",
"R.	c #183146",
"S.	c #E0E4E6",
"T.	c #09253C",
"U.	c #566A7A",
"V.	c #F0F2F3",
"W.	c #19354C",
"X.	c #1A3951",
"Y.	c #838F9A",
"Z.	c #082035",
"`.	c #172E42",
" +	c #84909B",
".+	c #364B5C",
"++	c #082237",
"@+	c #F0F1F3",
"#+	c #C2C8CE",
"$+	c #758490",
"%+	c #758491",
"&+	c #C2C9CE",
"*+	c #475C6D",
"=+	c #475D6E",
"-+	c #C1C7CC",
";+	c #071E33",
">+	c #071F33",
",+	c #455766",
"'+	c #36495A",
")+	c #273B4E",
"!+	c #082136",
"~+	c #364A5C",
"{+	c #F0F1F2",
"]+	c #465B6C",
"^+	c #84939F",
"/+	c #0A2942",
"(+	c #385265",
"_+	c #071C30",
":+	c #071D31",
"<+	c #838E98",
"[+	c #A2AAB2",
"}+	c #364859",
"|+	c #071F34",
"1+	c #172D41",
"2+	c #D1D5D9",
"3+	c #E0E3E6",
"4+	c #173044",
"5+	c #082238",
"6+	c #08233A",
"7+	c #566B7C",
"8+	c #253748",
"9+	c #061B2F",
"0+	c #354656",
"a+	c #C1C6CB",
"b+	c #071E32",
"c+	c #081F34",
"d+	c #08243A",
"e+	c #09243A",
"f+	c #09263E",
"g+	c #737E88",
"h+	c #061A2D",
"i+	c #16283A",
"j+	c #354555",
"k+	c #63707C",
"l+	c #546270",
"m+	c #071C2F",
"n+	c #D0D4D7",
"o+	c #06182A",
"p+	c #06182B",
"q+	c #A2A8AF",
"r+	c #636F7B",
"s+	c #445361",
"t+	c #061B2E",
"u+	c #A3ADB5",
"v+	c #243343",
"w+	c #051729",
"x+	c #344251",
"y+	c #929AA2",
"z+	c #06192B",
"A+	c #06192C",
"B+	c #A2ACB5",
"C+	c #9299A0",
"D+	c #051526",
"E+	c #152434",
"F+	c #344150",
"G+	c #A1A8AE",
"H+	c #727C86",
"I+	c #061729",
"J+	c #172F43",
"K+	c #EFF0F1",
"L+	c #152232",
"M+	c #051425",
"N+	c #636C77",
"O+	c #444F5C",
"P+	c #44505D",
"Q+	c #051527",
"R+	c #051627",
"S+	c #051628",
"T+	c #071D32",
"U+	c #828891",
"V+	c #041223",
"W+	c #C0C4C8",
"X+	c #535D68",
"Y+	c #828992",
"Z+	c #243140",
"`+	c #071B2F",
" @	c #172D40",
".@	c #141F2E",
"+@	c #041121",
"@@	c #232F3D",
"#@	c #727983",
"$@	c #626B75",
"%@	c #051323",
"&@	c #051324",
"*@	c #051426",
"=@	c #364858",
"-@	c #B1B4B9",
";@	c #040F1E",
">@	c #04101F",
",@	c #333D49",
"'@	c #82888F",
")@	c #525B66",
"!@	c #041222",
"~@	c #041323",
"{@	c #06172A",
"]@	c #364757",
"^@	c #525963",
"/@	c #030E1D",
"(@	c #232C39",
"_@	c #424B56",
":@	c #A1A5AB",
"<@	c #91969D",
"[@	c #041020",
"}@	c #838D96",
"|@	c #232B37",
"1@	c #030C1B",
"2@	c #323A46",
"3@	c #626871",
"4@	c #A1A5AA",
"5@	c #A1A4AA",
"6@	c #030F1E",
"7@	c #040F1F",
"8@	c #445261",
"9@	c #63707B",
"0@	c #A2A9B0",
"a@	c #D0D1D4",
"b@	c #131A27",
"c@	c #030B19",
"d@	c #323945",
"e@	c #91949B",
"f@	c #626770",
"g@	c #A1A4A9",
"h@	c #424955",
"i@	c #030D1C",
"j@	c #636E79",
"k@	c #636E7A",
"l@	c #A1A8AF",
"m@	c #636F7A",
"n@	c #A0A3A8",
"o@	c #020A17",
"p@	c #222935",
"q@	c #61676F",
"r@	c #525862",
"s@	c #232A37",
"t@	c #243241",
"u@	c #727B85",
"v@	c #636D78",
"w@	c #C1C5C9",
"x@	c #44505E",
"y@	c #828B93",
"z@	c #A0A3A7",
"A@	c #020815",
"B@	c #020916",
"C@	c #B0B2B6",
"D@	c #515660",
"E@	c #C0C2C5",
"F@	c #71757D",
"G@	c #323844",
"H@	c #030C1A",
"I@	c #030D1B",
"J@	c #91989F",
"K@	c #C1C4C8",
"L@	c #A0A2A7",
"M@	c #121623",
"N@	c #020714",
"O@	c #313741",
"P@	c #C0C1C5",
"Q@	c #61656D",
"R@	c #71757C",
"S@	c #414751",
"T@	c #020A18",
"U@	c #030B18",
"V@	c #828890",
"W@	c #B1B5BA",
"X@	c #525C67",
"Y@	c #D0D3D6",
"Z@	c #333F4C",
"`@	c #535C68",
" #	c #9298A0",
".#	c #CFD0D3",
"+#	c #111521",
"@#	c #010612",
"##	c #020613",
"$#	c #61646B",
"%#	c #41454F",
"&#	c #D0D1D3",
"*#	c #51555E",
"=#	c #909399",
"-#	c #121825",
";#	c #222834",
">#	c #020917",
",#	c #626972",
"'#	c #81878F",
")#	c #C0C3C7",
"!#	c #434B57",
"~#	c #333D4A",
"{#	c #232E3C",
"]#	c #14202F",
"^#	c #A1A6AC",
"/#	c #EFEFF0",
"(#	c #41434C",
"_#	c #010511",
":#	c #21252F",
"<#	c #41444D",
"[#	c #C0C1C4",
"}#	c #41454E",
"|#	c #B0B1B5",
"1#	c #909298",
"2#	c #51555D",
"3#	c #121824",
"4#	c #222833",
"5#	c #121A27",
"6#	c #222A36",
"7#	c #525861",
"8#	c #424954",
"9#	c #D0D2D4",
"0#	c #81868D",
"a#	c #C0C3C6",
"b#	c #424A55",
"c#	c #323B48",
"d#	c #333C49",
"e#	c #D0D2D5",
"f#	c #919198",
"g#	c #11131E",
"h#	c #01040F",
"i#	c #010410",
"j#	c #31333D",
"k#	c #60626A",
"l#	c #50535B",
"m#	c #51545C",
"n#	c #70737A",
"o#	c #71737B",
"p#	c #81838A",
"q#	c #414650",
"r#	c #81848A",
"s#	c #414651",
"t#	c #81848B",
"u#	c #323843",
"v#	c #91949A",
"w#	c #B0B3B7",
"x#	c #323944",
"y#	c #71767E",
"z#	c #81868E",
"A#	c #808186",
"B#	c #01030E",
"C#	c #01030F",
"D#	c #50525A",
"E#	c #808187",
"F#	c #C0C0C3",
"G#	c #808288",
"H#	c #808289",
"I#	c #818389",
"J#	c #51565F",
"K#	c #313742",
"L#	c #62676F",
"M#	c #E0E1E2",
"N#	c #808086",
"O#	c #10111C",
"P#	c #00020D",
"Q#	c #01020D",
"R#	c #21222C",
"S#	c #41424B",
"T#	c #909196",
"U#	c #31353F",
"V#	c #212631",
"W#	c #313540",
"X#	c #61656E",
"Y#	c #DFE0E2",
"Z#	c #AFAFB3",
"`#	c #606067",
" $	c #10101B",
".$	c #00010C",
"+$	c #010611",
"@$	c #51545D",
"#$	c #EFF0F0",
"$$	c #CFCFD1",
"%$	c #9F9FA3",
"&$	c #808085",
"*$	c #404048",
"=$	c #404049",
"-$	c #30313A",
";$	c #21222D",
">$	c #41424A",
",$	c #707178",
"'$	c #CFD0D2",
"                                                    . . . . . . . . . . . .                                                     ",
"                                            . . . . . . . . . . . . . . . . . . . .                                             ",
"                                      . . . . . . . . . . . . . . . . . . . . . . . . . .                                       ",
"                                  . . . . . . . . + @ # $ $ % & & * $ $ = - ; . . . . . . . .                                   ",
"                              . . . . . . . > , ' & & & & & & & & & & & & & & ' ) @ ! . . . . . .                               ",
"                            . . . . . ~ # ' & & & & & & & & & & & & & & & & & & & & ' , ~ . . . . .                             ",
"                          . . . . ! # & & & & & & & ' * , ' $ , & & & & & & & & & & & & & , ~ . . . . .                         ",
"                      . . . . . - ' & & & & * ' # # ' * & & & & & & & & & & & & & & & & & & & # . . . . .                       ",
"                    . . . . ! $ & & & & ' @ ) % * & & & & & & & & & & & & & & & & & & & & & & & % + . . . .                     ",
"                  . . . . + ' & & & $ % @ % & & & & & & & & & & & & & & & & & & & & & & & & & & & ' @ . . . .                   ",
"                . . . . @ ' & & & - ) ) & & & & & & & & & & & & & & & & & & & & & & & & & & & & & & & - . . . .                 ",
"              . . . . @ & & & ' - , * & & & & & & & & & & & & & & & & & & & & & & & & & & & & & & & & & , . . . .               ",
"              . . . @ & & & * @ ) & & & & & & & & & & & & & & & & & & & & & & & & & & & & & & & & & & & & # . . . .             ",
"            . . . + ' & & , @ ) & & & & & & & & & & & & & & & & & & & & & & & & & & & & & & & & & & & & & & @ . . .             ",
"          . . . ! * & & ) , , & & & & & & & & & & & & & & & & & & & & & & & & & & & & & & & & & & & & & & & ' + . . .           ",
"        . . . . ) & & ) , , & & & & & & & & & & & & & & & & & & & & & & & & & & & & & & & & & & & & & & & & & % ! . . .         ",
"        . . . > & & % ) # & & & & & & & & & & & & & & & & & & & & & & & & & & & & & & & & & & & & & & & & & & & = . . .         ",
"      . . . ! ' & ' % @ ' & & & & & & & & & & & & & & & & & & & & & & & & & & & & & & & & & & & & & & & & & & & & ~ . . .       ",
"      . . . # & & * ; $ & & & & & & & & & & & & & & & & & & & & & & & & & & & & & & & & & & & & & & & & & & & & & $ . . .       ",
"    . . . ! ' & & + ) & & & & & & & & & & & & & & & & & & & & & & & & & & & & & & & & & & & & & & & & & & & & & & & ; . . .     ",
"    . . . # & & # $ * & & & & & & & & & & & & & & & & & & & & & & & & & & & & & & & & & & & & & & & & & & & & & & & , . . .     ",
"    . . . { ] ^ / ( _ & & & & & & & & & & & & & & & & & & & & & & & & & & & & & & & & & & & & & & & & & & & & & & & & ! . .     ",
"  . . . : < < [ } | 1 ] 2 3 _ _ & & & & & & & & & & & & & & & & & & & & & & & & & & & & & & & & & & & & & & & & & & & - . . .   ",
"  . . . 4 5 6 7 8 9 < 0 a a a 1 ] 2 3 _ _ & & & & & & & & & & & & & & & & & & & & & & & & & & & & & & & & & & & & & & $ . . .   ",
"  . . . b c d e f g 5 6 6 h i j . . . . . . . . . . . . . . . . . . . . . . . ~ # & & & & & & & & & & & - . . , & & & & ! . .   ",
"  . . k l l m n o p c q f k . . . . . . . . . . . . . . . . . . . . . . . . . . . @ & & & & & & & & & % . . . . ' & & & ; . . . ",
". . . r s t u v w l l x k . . y z d 4 y . . . i A A B . . C D E F . + $ $ $ , + . . , & & & & & & & & $ . . . . % & & & # . . . ",
". . . G H I G J s K L M . . N l O P P p Q k . k R 5 S . . A < 0 T . ; & & & & ' ~ . > & & & & & & & & ' ~ . . ; & & & & ) . . . ",
". . . U V W X Y Z H ` . .  .K L L ..+.l l @.. . z q d . . #.5 6 i . ; & & & & & - . ; & & & & & & & & & ' = , & & & & & $ . . . ",
". . . $.%.&.*.=.V V -.. ;.Z H >.>.s s K L L r . ,.l '.. . ).q q !.. ; & & & & & > . ; & & & & * ~ . @ & & & & & & & & & ' . . . ",
". . . ~.{.].^./.%.%.. . (.V V _.:.Z Z H >.>. .. . L <.. . [.l P }.. ; & & & & , . . - & & & & # . . . * & & & & & & & & & . . . ",
". . . |.1.2.3.4.5.{.. . /.%.%.%.6.7.V V _.:.X . . >.8.. . 9.L L 0.. 7 a.; ; ! . . ! ' & & & & , . . ! & & & & & & & & & & . . . ",
". . . b.c.d.e.f.g.1.. . h.5.{.{.i.j.%.%.%.6.k.. . _.X . . l.>.>.G . r u . . . . ~ % & & & & & & , # % & & & & & & & & & & . . . ",
". . . m.n.o.p.q.c.c.e.. r.g.1.s.5.5.5.{.{.i.*.. t.u.v.. . w._.:.x.. -.>.-.. . @ & & & & - ; ) & & & & & & & & & & & & & & . . . ",
". . . y.z.A.B.C.D.n.E.. . F.c.G.G.H.g.1.s.I.. . J.{.$.. . K.u.6.(.. -._.L.;.. ! % & & * . . ; & & & & & & & & & & & & & ' . . . ",
". . . M.N.O.P.Q.z.z.R.S.. . E.T.T.c.c.c.U.V.. V.W.s.3.. . ~.{.i.^.. *.u.6.X.t.. ! ' & & + . - & & & & & & & & & & & & & $ . . . ",
". . . Y.Z.`. +Q..+N.++O.@+. . #+$+m.%+&+. . . *+c.G.=+. . 3.s.5.h.. *.{.i.j.&.V.. + & & & % & & & & & & & & & & & & & & ) . . . ",
". . . -+;+>+,+'+)+Z.Z.!+~+{+. . . . . . . @+]+D.n.T.*+. . =+G.G.^+. e.s.5.5./+(+V.. @ & & & & & & & & & & & & & & & & & # . . . ",
"  . . {+_+:+<+[+}+;+>+>+|+1+Y.2+. . . 3+ +4+5+z.z.6+B.. . m.T.T.p.. e.G.G.H.g.s.7+. . = & & & & & & & & & & & & & & & & ; . . . ",
"  . . . 8+9+0+[+a+_+:+:+b+b+;+>+|+|+c+Z.Z.!+!+!+++++5+5+z.z.d+e+D.D.n.T.T.c.c.f+G.d.. . $ & & & & & & & & & & & & & & & ! . .   ",
"  . . . g+h+i+j+k+l+9+m+_+_+_+:+:+b+b+;+>+|+|+c+Z.Z.!+!+N.++++5+5+z.z.d+e+D.n.n.T.T.F.. ! * & & & & & & & & & & & & & $ . . .   ",
"  . . . n+o+p+q+r+s+h+h+h+t+t+9+m+_+_+_+:+:+b+b+;+>+|+|+c+Z.Z.!+!+N.++++5+5+z.z.d+e+D.u+. + ' & & & & & & & & & & & & - . . .   ",
"    . . . v+w+x+n+y+o+p+z+A+A+h+h+h+t+t+9+m+_+_+_+:+:+b+b+;+>+|+|+c+Z.Z.!+!+N.++++5+5+z.B+. > & & & & & & & & & & & & ! . .     ",
"    . . . C+D+E+F+G+H+w+w+I+o+o+p+z+A+A+h+h+h+t+t+9+m+_+_+:+:+:+b+b+;+>+|+|+c+Z.Z.!+!+N.J+2+. # & & & & & & & & & & , . . .     ",
"    . . . K+L+M+N+O+C+P+Q+R+S+S+w+w+I+o+o+p+z+A+A+h+h+h+t+t+9+m+_+_+:+:+T+b+b+;+>+|+|+c+Z.`.2+. , & & & & & & & & & ; . . .     ",
"      . . . U+V+V+W+X+Y+Z+M+M+D+D+Q+R+S+S+w+w+I+o+p+p+z+A+A+h+h+h+t+t+`+m+_+_+:+:+T+b+b+;+>+ @{+! % & & & & & & & $ . . .       ",
"      . . . K+.@+@@@W+#@$@V+%@&@&@M+M+*@D+D+Q+R+S+S+w+w+I+o+p+p+z+A+A+h+h+h+t+t+`+m+_+_+:+:+T+=@{+~ ' & & & & & & ~ . . .       ",
"        . . . -@;@>@,@-@'@)@+@!@!@V+~@%@&@&@M+M+*@D+D+Q+R+S+S+w+w+{@o+p+p+z+A+A+h+h+h+t+t+`+m+_+]@. + & & & & & # . . .         ",
"        . . . . ^@/@(@_@:@<@,@>@[@[@+@+@!@!@V+~@%@&@&@M+M+*@D+D+Q+R+S+S+w+w+{@o+p+p+z+A+A+h+h+h+t+}@. @ & & & % ! . . .         ",
"          . . . K+|@1@2@3@4@5@_@6@;@7@>@>@[@[@+@+@!@!@V+~@%@&@&@M+M+D+D+D+R+R+S+S+w+w+{@o+p+p+z+8@9@0@. , & ' + . . .           ",
"            . . . a@b@c@d@e@f@g@h@i@i@/@/@6@;@7@>@>@[@[@+@+@!@!@V+~@%@&@&@M+M+D+D+D+R+R+S+S+w+j@k@l@m@q+. $ @ . . .             ",
"              . . . n@o@o@p@n@q@g@r@s@1@1@i@i@i@/@/@6@;@7@>@>@[@[@+@+@!@!@V+~@&@&@&@M+M+D+t@u@v@w@x@y@w+l@. . . . .             ",
"              . . . . z@A@B@B@C@D@E@F@G@c@c@H@H@1@I@i@i@i@/@/@6@;@7@>@>@[@[@+@+@!@!@V+~@X+J@N+K@O+u@D+Q+v@. . . .               ",
"                . . . . L@M@N@A@C@O@P@Q@R@S@T@T@U@c@c@H@H@1@I@i@i@/@/@/@;@;@7@>@>@[@.@V@W@X@Y@Z@`@&@&@ #. . . .                 ",
"                  . . . . .#+#@###$#%#&#*#=#=#-#;#>#o@T@T@U@c@c@H@H@1@I@i@i@/@/@,#,#'#)#!#)#~#{#+@]#^#. . . .                   ",
"                    . . . . /#(#_#_#:#<#[#}#|#1#2#C@*#3#4#B@>#o@T@T@5#6#7#r@8#9#0#^@a#b#4@c#;@;@d#e#. . . .                     ",
"                      . . . . . f#g#h#i#j#k#l#[#m#n#|#}#o#L@p#q#P@r#s#t#C@u#v#w#x#w#y#d@1@I@i@z#. . . . .                       ",
"                          . . . . /#A#B#B#B#C#D#E#j#F#G#<#[#H#}#[#I#%#[#r#q#P@J#S@K#T@T@U@L#M#. . . . .                         ",
"                            . . . . . /#N#O#P#Q#B#B#R#S#g#T#G#(#[#G#<#H#U#V#W#N@A@A@3#X#Y#. . . . .                             ",
"                              . . . . . . . Z#`# $.$.$P#Q#B#B#B#C#h#i#i#_#_#+$+#@$L@#$. . . . . .                               ",
"                                  . . . . . . . . $$%$&$*$=$-$.$P#;$>$S#,$T#'$. . . . . . . .                                   ",
"                                      . . . . . . . . . . . . . . . . . . . . . . . . . .                                       ",
"                                            . . . . . . . . . . . . . . . . . . . .                                             ",
"                                                    . . . . . . . . . . . .                                                     "};
