/* XPM */
static char * C:\Users\OTR_dev\Desktop\coin\no exif\32_xpm[] = {
"32 32 246 2",
"  	c None",
". 	c #FFFFFF",
"+ 	c #E1E7EA",
"@ 	c #C3CED6",
"# 	c #879DAC",
"$ 	c #B4C2CB",
"% 	c #F0F3F5",
"& 	c #96A9B6",
"* 	c #3B6078",
"= 	c #0E3B59",
"- 	c #2C546E",
"; 	c #1D4763",
"> 	c #688597",
", 	c #4A6C83",
"' 	c #A5B6C1",
") 	c #D2DAE0",
"! 	c #59788D",
"~ 	c #95A9B6",
"{ 	c #1D4762",
"] 	c #A5B5C0",
"^ 	c #3A5C73",
"/ 	c #597589",
"( 	c #95A8B4",
"_ 	c #0D3855",
": 	c #0E3956",
"< 	c #0E3A57",
"[ 	c #0E3A58",
"} 	c #0E3B58",
"| 	c #F0F2F4",
"1 	c #0C334E",
"2 	c #678091",
"3 	c #49677C",
"4 	c #0D3551",
"5 	c #688193",
"6 	c #F0F3F4",
"7 	c #C2CBD2",
"8 	c #1B3D55",
"9 	c #2A4B62",
"0 	c #587285",
"a 	c #B3BFC7",
"b 	c #49667B",
"c 	c #597588",
"d 	c #D2D9DF",
"e 	c #D2DADF",
"f 	c #4A6A7F",
"g 	c #7791A2",
"h 	c #94A3AD",
"i 	c #385468",
"j 	c #C2CBD1",
"k 	c #0B2E47",
"l 	c #E1E5E8",
"m 	c #B3BEC6",
"n 	c #0B304A",
"o 	c #0C304B",
"p 	c #0C314C",
"q 	c #2A4B63",
"r 	c #C2CCD3",
"s 	c #C2CDD4",
"t 	c #8494A0",
"u 	c #284459",
"v 	c #8594A1",
"w 	c #0A2A43",
"x 	c #486173",
"y 	c #0B2C46",
"z 	c #0B2D46",
"A 	c #0B2E48",
"B 	c #8597A5",
"C 	c #C2CCD2",
"D 	c #0C324D",
"E 	c #84929E",
"F 	c #374E61",
"G 	c #C2C9CF",
"H 	c #09273F",
"I 	c #667988",
"J 	c #0A2941",
"K 	c #0A2A42",
"L 	c #0A2B44",
"M 	c #E0E5E8",
"N 	c #8596A2",
"O 	c #C2CAD1",
"P 	c #939EA8",
"Q 	c #364C5E",
"R 	c #B2BAC1",
"S 	c #09243A",
"T 	c #A3ADB5",
"U 	c #F0F2F3",
"V 	c #374F61",
"W 	c #09263E",
"X 	c #385165",
"Y 	c #C2CAD0",
"Z 	c #667B8B",
"` 	c #C1C7CC",
" .	c #172D41",
"..	c #939DA7",
"+.	c #364A5B",
"@.	c #172F43",
"#.	c #D1D5D9",
"$.	c #C2C8CE",
"%.	c #E0E4E7",
"&.	c #758491",
"*.	c #09263D",
"=.	c #09283F",
"-.	c #667A89",
";.	c #F0F1F2",
">.	c #071C30",
",.	c #B1B8BE",
"'.	c #556472",
").	c #071E33",
"!.	c #172D40",
"~.	c #74818C",
"{.	c #838F99",
"].	c #838F9A",
"^.	c #465968",
"/.	c #082238",
"(.	c #082338",
"_.	c #657583",
":.	c #657684",
"<.	c #09253B",
"[.	c #657785",
"}.	c #475C6D",
"|.	c #09273E",
"1.	c #93A1AB",
"2.	c #354453",
"3.	c #737E88",
"4.	c #929BA3",
"5.	c #061B2E",
"6.	c #071B2F",
"7.	c #071D31",
"8.	c #071D32",
"9.	c #071F33",
"0.	c #071F34",
"a.	c #082035",
"b.	c #082136",
"c.	c #082137",
"d.	c #082339",
"e.	c #A1A8AE",
"f.	c #243343",
"g.	c #C1C5C9",
"h.	c #344352",
"i.	c #06182A",
"j.	c #06192C",
"k.	c #061A2D",
"l.	c #081F34",
"m.	c #C1C8CD",
"n.	c #EFF0F1",
"o.	c #142231",
"p.	c #828992",
"q.	c #A1A7AD",
"r.	c #152434",
"s.	c #051627",
"t.	c #051628",
"u.	c #051729",
"v.	c #06172A",
"w.	c #06182B",
"x.	c #91979D",
"y.	c #141F2E",
"z.	c #C0C3C7",
"A.	c #727A83",
"B.	c #041223",
"C.	c #051324",
"D.	c #051425",
"E.	c #051526",
"F.	c #061A2C",
"G.	c #162B3E",
"H.	c #D1D5D8",
"I.	c #424A55",
"J.	c #525963",
"K.	c #727881",
"L.	c #04101F",
"M.	c #041020",
"N.	c #041121",
"O.	c #041222",
"P.	c #838D96",
"Q.	c #121A27",
"R.	c #71767D",
"S.	c #C0C2C6",
"T.	c #71777F",
"U.	c #131C2A",
"V.	c #030E1D",
"W.	c #030E1E",
"X.	c #040F1E",
"Y.	c #152435",
"Z.	c #737C86",
"`.	c #C1C5CA",
" +	c #929AA2",
".+	c #D1D8DD",
"++	c #D0D1D3",
"@+	c #121724",
"#+	c #414650",
"$+	c #B0B2B7",
"%+	c #424852",
"&+	c #030B19",
"*+	c #030C1A",
"=+	c #030C1B",
"-+	c #030D1C",
";+	c #434D5A",
">+	c #B1B5BA",
",+	c #D0D3D6",
"'+	c #727A84",
")+	c #152333",
"!+	c #D0D3D7",
"~+	c #EFEFF0",
"{+	c #31343E",
"]+	c #212530",
"^+	c #808389",
"/+	c #C0C1C4",
"(+	c #C0C1C5",
"_+	c #81848B",
":+	c #323742",
"<+	c #121926",
"[+	c #030A18",
"}+	c #222A37",
"|+	c #424954",
"1+	c #626871",
"2+	c #91969C",
"3+	c #D0D2D5",
"4+	c #B0B4B9",
"5+	c #232D3B",
"6+	c #333D4A",
"7+	c #818289",
"8+	c #11131E",
"9+	c #41424B",
"0+	c #808187",
"a+	c #808288",
"b+	c #80838A",
"c+	c #A0A3A8",
"d+	c #D0D1D4",
"e+	c #525761",
"f+	c #131B28",
"g+	c #81868D",
"h+	c #909095",
"i+	c #30313A",
"j+	c #01020D",
"k+	c #20222C",
"l+	c #505259",
"m+	c #60626A",
"n+	c #60636A",
"o+	c #222632",
"p+	c #81848A",
"q+	c #DFDFE0",
"r+	c #BFBFC2",
"s+	c #808085",
"t+	c #808086",
"u+	c #808186",
"v+	c #B0B0B4",
"w+	c #DFE0E1",
"                        . . . . . . . . .                       ",
"                  . . . + @ # # # # $ + . . .                   ",
"              . . % & * = = = = = = = = - # % . .               ",
"            . . # ; = - > , * > = = = = = = ; # . .             ",
"          . % * = * ' , ; = = = = = = = = = = = * ) .           ",
"        . ) ; ; ' ! = = = = = = = = = = = = = = = ; ) .         ",
"      . % ; - ' - = = = = = = = = = = = = = = = = = ; ) .       ",
"    . . , - ' - = = = = = = = = = = = = = = = = = = = * % .     ",
"    . & ; & , = = = = = = = = = = = = = = = = = = = = = # .     ",
"  . % ; ! # = = = = = = = = = = = = = = = = = = = = = = = + .   ",
"  . ~ { ] ; = = = = = = = = = = = = = = = = = = = = = = = # .   ",
"  . ^ / ( _ : < [ } = = = = = = = = = = = = = = = = = = = - . . ",
". | 1 2 3 4 5 6 . . . . . . . . . . . . ' = = = = - % % ; = ) . ",
". 7 8 7 9 0 . a b 2 | | c d e f e ' , g . > = = = * . . ; = ' . ",
". h i j k l m n o p q . 2 r r 4 s # = = % # = ; # * * - = = # . ",
". t u v w . x y z k A j B 7 C D C @ # $ . , = , . & = = = = # . ",
". E F G H . I J K w L M N O j A j m . . ! = g - , ; = = = = # . ",
". P Q R S T U V W H t . X Y Y L Y N Z . > ; . g = = = = = = # . ",
". `  ...+.@.#.. $.%.. &.*.G G =.G t K -.. * ; = = = = = = = ' . ",
". ;.>.,.'.).!.~.{.].^./.(._.:.<.[.}.|.H 1.% - = = = = = = = ) . ",
"  . 2.3.4.5.6.>.7.8.).9.0.a.b.c./.d.d.S <.T ) ; = = = = = - . . ",
"  . e.f.g.h.i.j.j.k.5.6.>.7.8.).9.l.a.b.c./.m.' = = = = = # .   ",
"  . n.o.p.q.r.s.t.u.v.w.j.j.k.5.6.>.7.8.).0. .#.# = = = = + .   ",
"    . x.y.z.A.B.C.D.D.E.s.t.u.v.w.j.F.k.5.6.>.G.H.! = = # .     ",
"    . . I.J.z.K.L.M.N.O.B.C.D.D.E.s.t.u.i.w.j.F.P.%.* * % .     ",
"      . n.Q.R.S.T.U.V.W.X.L.M.N.O.B.C.D.D.E.Y.Z.`. +.+) .       ",
"        . ++@+#+++$+%+&+*+=+-+V.W.X.L.M.N.;+>+,+'+)+!+.         ",
"          . ~+{+]+^+/+(+_+:+<+[+&+}+|+1+2+3+4+5+6+,+.           ",
"            . . 7+8+9+0+a+/+/+b+/+c+c+d+c+e+f+g+. .             ",
"              . . ~+h+i+j+k+l+9+m+n+]+]+o+p+n.. .               ",
"                  . . . q+r+s+t+u+0+v+w+. . .                   ",
"                        . . . . . . . . .                       "};
